# This file uses centimeters as units for non-parametric coordinates.

mtllib helmet.mtl
g default
v -0.345232 1.289101 -0.667730
v -0.603411 1.343427 -0.561448
v -0.378642 0.969616 -0.849213
v -0.709693 1.449709 -0.315969
v -0.890845 1.121572 -0.339001
v -0.000000 0.862695 -0.914002
v 0.000000 0.442486 -0.991352
v 0.378641 0.969616 -0.849213
v -0.955634 1.149917 0.041632
v -0.603411 1.682671 -0.603411
v -0.386732 1.465992 -0.905116
v -0.709693 1.437193 -0.709694
v -0.905116 1.465992 -0.386731
v -0.000000 1.494791 -0.970943
v 0.000000 1.079260 -1.040884
v -1.040884 1.079261 0.000000
v -0.970943 1.494791 0.000000
v 0.415531 1.079260 -0.970943
v 0.399206 0.511969 -0.919558
v -0.357932 1.788954 -0.709693
v -0.709693 1.788954 -0.357932
v -0.762149 1.502161 0.041963
v 0.000000 1.146658 -0.720186
v -0.905116 1.465992 0.386731
v 0.386732 1.465992 -0.905116
v -0.970943 1.079261 0.415531
v -0.386732 1.645124 -0.344769
v -1.008499 0.759687 -0.022830
v -0.890845 1.121572 0.422266
v -0.709693 1.449709 0.399895
v 0.345232 1.289101 -0.667730
v -0.938570 0.799577 0.378537
v -0.762149 1.841410 -0.000000
v 0.000000 1.841410 -0.762149
v -0.386732 1.984377 -0.386732
v -0.415531 1.710952 0.041963
v 0.000000 1.710952 -0.373568
v -0.709693 1.788954 0.357932
v 0.357932 1.788954 -0.709693
v 0.709693 1.437193 -0.709694
v -0.549807 1.476817 0.719735
v 0.762149 1.079260 -0.762149
v -0.762149 1.079260 0.762149
v -0.698503 1.093230 0.740135
v -0.603411 1.343427 0.645374
v 0.603411 1.343427 -0.561448
v 0.686268 1.054532 -0.656871
v -0.734687 0.981220 0.755669
v -0.415531 2.050204 0.000000
v 0.000000 2.050204 -0.415531
v 0.603411 1.682672 -0.603411
v -0.467469 1.666992 0.637396
v 0.000000 1.780896 0.041963
v 0.734687 0.672102 -0.713705
v -0.415531 1.079261 0.970943
v 0.970943 1.079261 -0.415531
v -0.386732 1.645124 0.428695
v 0.386731 1.645124 -0.344769
v -0.380634 1.121572 0.932477
v 0.890845 1.121572 -0.339002
v -0.402229 0.940129 0.961521
v 0.709693 1.449709 -0.315969
v -0.357932 1.449709 0.751657
v 0.000000 2.120144 -0.000000
v -0.386732 1.984377 0.386732
v -0.299605 1.499128 0.871131
v 0.905116 1.465992 -0.386732
v 0.386731 1.984377 -0.386732
v -0.000000 1.710952 0.457494
v 0.415531 1.710952 0.041963
v 0.000000 1.149917 0.997266
v 0.955634 1.149917 0.041632
v 1.040884 1.079261 0.000000
v 0.000000 1.012357 1.040884
v -0.277294 1.749330 0.719734
v 0.709693 1.788954 -0.357932
v 0.000000 0.892065 1.033315
v 0.762149 1.502161 0.041963
v 0.000000 1.502161 0.804112
v 0.386732 1.645124 0.428695
v -0.000000 2.050204 0.415531
v 0.415531 2.050204 0.000000
v 0.970943 1.494791 -0.000000
v 0.000000 1.494791 0.970943
v 0.357932 1.449709 0.751657
v 0.709693 1.449709 0.399895
v 0.402229 0.940129 0.961521
v 0.380634 1.121572 0.932477
v 0.938570 0.869746 -0.380386
v 0.890845 1.121572 0.422266
v 0.000000 1.841410 0.762149
v 0.762149 1.841410 0.000000
v 0.415531 1.079261 0.970943
v 0.386732 1.984377 0.386732
v 0.970943 1.079261 0.415531
v 0.905116 1.465992 0.386731
v 0.299605 1.499128 0.871131
v 0.734687 0.981220 0.755669
v 0.698503 1.093230 0.740135
v 0.603411 1.343427 0.645374
v 0.762149 1.079260 0.762149
v 0.549807 1.476817 0.719735
v 0.277294 1.749330 0.719734
v 0.709694 1.788954 0.357932
v 0.467469 1.666992 0.637396
v 1.008499 0.759687 -0.022830
v 0.938570 0.799577 0.378537
v -0.970943 1.079261 -0.415531
v -0.415531 1.079260 -0.970943
v -0.686268 1.054532 -0.656871
v -0.762149 1.079260 -0.762149
v -0.938570 0.869746 -0.380386
v -0.399206 0.511969 -0.919558
v -0.734687 0.672102 -0.713706
v 0.000000 0.453730 -0.959428
v 0.386617 0.521021 -0.889898
v -0.976696 0.760927 -0.021449
v -0.908972 0.799559 0.367262
v 0.711519 0.676104 -0.690537
v -0.711519 0.975474 0.732500
v -0.389545 0.935678 0.931861
v 0.000000 0.889131 1.001391
v 0.908972 0.867516 -0.367729
v 0.389545 0.935678 0.931861
v 0.711519 0.975474 0.732500
v 0.976696 0.760927 -0.021449
v 0.908972 0.799559 0.367262
v -0.908972 0.867516 -0.367729
v -0.386617 0.521021 -0.889898
v -0.711519 0.676104 -0.690537
vt 0.123144 0.739280
vt 0.142598 0.788263
vt 0.082536 0.783668
vt 0.070265 0.720239
vt 0.087724 0.859620
vt 0.152199 0.859686
vt 0.036034 0.777935
vt 0.000998 0.713521
vt 0.016524 0.847033
vt 0.142598 0.931109
vt 0.082536 0.935573
vt 0.023595 0.924598
vt 0.123144 0.980093
vt 0.077348 0.999002
vt 0.055794 0.997478
vt 0.969947 0.579825
vt 0.925015 0.601033
vt 0.930286 0.536588
vt 0.989401 0.530842
vt 0.859499 0.542335
vt 0.859499 0.611500
vt 0.935557 0.459419
vt 0.999002 0.459419
vt 0.859499 0.459419
vt 0.821150 0.535322
vt 0.784973 0.601834
vt 0.930286 0.382249
vt 0.989401 0.387996
vt 0.859499 0.376502
vt 0.801005 0.463974
vt 0.808306 0.383884
vt 0.932267 0.315801
vt 0.859499 0.307337
vt 0.841554 0.308630
vt 0.084641 0.476347
vt 0.084641 0.407182
vt 0.150156 0.417649
vt 0.155428 0.482094
vt 0.046291 0.483360
vt 0.010115 0.416849
vt 0.195088 0.438857
vt 0.214542 0.487841
vt 0.084641 0.559264
vt 0.160699 0.559264
vt 0.026146 0.554708
vt 0.224144 0.559264
vt 0.155428 0.636433
vt 0.084641 0.642180
vt 0.033448 0.634798
vt 0.214542 0.630687
vt 0.157409 0.702882
vt 0.084641 0.711345
vt 0.066696 0.710052
vt 0.279254 0.973243
vt 0.226375 0.992284
vt 0.238646 0.928856
vt 0.298708 0.924260
vt 0.157108 0.999002
vt 0.192144 0.934588
vt 0.243834 0.852903
vt 0.308309 0.852837
vt 0.172634 0.865490
vt 0.298708 0.781414
vt 0.238646 0.776950
vt 0.179705 0.787926
vt 0.233458 0.713521
vt 0.279254 0.732430
vt 0.211904 0.715045
vt 0.530883 0.636882
vt 0.511429 0.585364
vt 0.570544 0.593645
vt 0.575815 0.658089
vt 0.641331 0.599391
vt 0.641331 0.668557
vt 0.706846 0.658089
vt 0.712117 0.593645
vt 0.641331 0.516475
vt 0.565272 0.516475
vt 0.717389 0.516475
vt 0.751778 0.636882
vt 0.771232 0.587898
vt 0.570544 0.439305
vt 0.641331 0.433559
vt 0.712117 0.439305
vt 0.780834 0.516475
vt 0.575815 0.374861
vt 0.641331 0.364393
vt 0.771232 0.445052
vt 0.706846 0.374860
vt 0.511429 0.447586
vt 0.530883 0.396068
vt 0.751778 0.396068
vt 0.296999 0.636433
vt 0.302271 0.700878
vt 0.257339 0.679670
vt 0.237885 0.630687
vt 0.367786 0.642180
vt 0.367786 0.711345
vt 0.228283 0.559264
vt 0.291728 0.559264
vt 0.433302 0.700878
vt 0.438573 0.636433
vt 0.367786 0.559264
vt 0.237885 0.487841
vt 0.296999 0.482094
vt 0.443845 0.559264
vt 0.478234 0.679670
vt 0.497688 0.630687
vt 0.367786 0.476347
vt 0.438573 0.482094
vt 0.507289 0.559264
vt 0.317031 0.415646
vt 0.367786 0.407182
vt 0.418542 0.415646
vt 0.497688 0.487841
vt 0.185593 0.000998
vt 0.258663 0.015324
vt 0.256359 0.021242
vt 0.185593 0.007368
vt 0.320069 0.056400
vt 0.315828 0.061024
vt 0.112522 0.015324
vt 0.114827 0.021242
vt 0.357388 0.122912
vt 0.351970 0.125438
vt 0.051116 0.056400
vt 0.055357 0.061024
vt 0.370187 0.194260
vt 0.364366 0.194536
vt 0.013798 0.122912
vt 0.019215 0.125438
vt 0.357388 0.274350
vt 0.351970 0.272100
vt 0.000998 0.194260
vt 0.006819 0.194536
vt 0.320069 0.349604
vt 0.315828 0.344981
vt 0.013798 0.274350
vt 0.019215 0.272100
vt 0.259216 0.390680
vt 0.256895 0.384762
vt 0.051116 0.349604
vt 0.055357 0.344981
vt 0.185593 0.405006
vt 0.185593 0.398636
vt 0.111969 0.390680
vt 0.114291 0.384762
vt 0.407450 0.931055
vt 0.465928 0.924388
vt 0.475872 0.975906
vt 0.422993 0.992440
vt 0.387879 0.855500
vt 0.439856 0.855500
vt 0.325340 0.932646
vt 0.353726 0.997478
vt 0.313023 0.855500
vt 0.407450 0.779944
vt 0.465928 0.786611
vt 0.543144 0.855500
vt 0.531095 0.932669
vt 0.325340 0.778353
vt 0.475872 0.735093
vt 0.422993 0.718560
vt 0.531095 0.778330
vt 0.353726 0.713521
vt 0.648743 0.230249
vt 0.654015 0.294694
vt 0.609083 0.273486
vt 0.589629 0.224503
vt 0.719530 0.235996
vt 0.719530 0.305161
vt 0.643472 0.153080
vt 0.580027 0.153080
vt 0.719530 0.153080
vt 0.794056 0.299681
vt 0.823367 0.232738
vt 0.589629 0.081657
vt 0.648743 0.075910
vt 0.719530 0.070163
vt 0.836085 0.153080
vt 0.609083 0.032673
vt 0.654015 0.011465
vt 0.719530 0.000998
vt 0.823367 0.073421
vt 0.794056 0.006478
vt 0.645249 0.954690
vt 0.623695 0.952093
vt 0.618507 0.888664
vt 0.652533 0.890442
vt 0.577899 0.933118
vt 0.558445 0.884134
vt 0.613319 0.812711
vt 0.661053 0.812711
vt 0.548844 0.812711
vt 0.618507 0.736758
vt 0.652533 0.734980
vt 0.558445 0.741288
vt 0.623695 0.673329
vt 0.645249 0.670732
vt 0.577899 0.692305
vt 0.517231 0.274888
vt 0.539554 0.323222
vt 0.480440 0.362218
vt 0.482421 0.291318
vt 0.575325 0.258777
vt 0.532302 0.236940
vt 0.486505 0.241392
vt 0.409653 0.333689
vt 0.409653 0.264524
vt 0.485711 0.181608
vt 0.549156 0.181608
vt 0.384186 0.261870
vt 0.391708 0.328210
vt 0.397407 0.181608
vt 0.532302 0.126276
vt 0.486505 0.121824
vt 0.375389 0.181608
vt 0.409653 0.098692
vt 0.517231 0.088328
vt 0.482421 0.071898
vt 0.384186 0.101346
vt 0.409653 0.029526
vt 0.575325 0.104438
vt 0.539554 0.039993
vt 0.480440 0.000998
vt 0.391708 0.035006
vn 0.089828 -0.505116 0.858364
vn 0.122614 -0.568167 0.813727
vn 0.484768 -0.553648 0.677107
vn 0.524239 -0.445609 0.725677
vn 0.660755 -0.657160 0.362689
vn 0.818878 -0.460022 0.343247
vn -0.351686 -0.100334 0.930726
vn 0.000000 -0.101307 0.994855
vn 0.000000 -0.101307 0.994855
vn -0.286158 -0.100764 0.952869
vn 0.000000 -0.526377 0.850251
vn 0.000000 -0.556282 0.830994
vn 0.873264 -0.487247 0.000100
vn 0.719688 -0.694297 -0.000052
vn -0.329322 0.329322 -0.884926
vn -0.671526 0.313219 -0.671526
vn -0.577350 0.577350 -0.577350
vn -0.313220 0.671526 -0.671526
vn -0.884926 0.329322 -0.329322
vn -0.671526 0.671526 -0.313220
vn -0.000000 0.345160 -0.938544
vn -0.000000 0.016843 -0.999858
vn -0.343454 0.017566 -0.939005
vn -0.998692 0.050788 0.005884
vn -0.938544 0.345160 0.000000
vn -0.933954 0.045549 -0.354478
vn 0.343454 0.017566 -0.939005
vn 0.308619 -0.095093 -0.946421
vn -0.000000 -0.085953 -0.996299
vn 0.000000 0.707107 -0.707107
vn -0.707107 0.707107 -0.000000
vn -0.839561 0.358859 0.407871
vn -0.915769 0.104906 0.387765
vn 0.329322 0.329322 -0.884926
vn 0.243224 -0.833759 0.495669
vn 0.998465 -0.055260 -0.003878
vn 0.998275 -0.050901 -0.029268
vn 0.951457 -0.011864 -0.307553
vn 0.967312 -0.017624 -0.252976
vn 0.684841 -0.656998 -0.315192
vn 0.820458 -0.474831 -0.318408
vn -0.089827 -0.505117 0.858364
vn -0.122614 -0.568168 0.813727
vn -0.992071 -0.125328 0.009404
vn -0.949721 -0.144851 0.277575
vn -0.329322 0.884926 -0.329322
vn 0.345156 -0.938545 0.000000
vn 0.000000 -0.826282 0.563256
vn -0.733726 -0.179005 0.655441
vn -0.698640 0.189118 0.690026
vn -0.655821 0.646765 0.389350
vn 0.313220 0.671526 -0.671526
vn 0.671526 0.313219 -0.671526
vn 0.695332 0.025275 -0.718244
vn -0.592126 0.383742 0.708610
vn 0.589351 -0.552500 -0.589414
vn 0.627867 -0.460155 -0.627727
vn -0.484768 -0.553648 0.677107
vn -0.524239 -0.445610 0.725676
vn 0.329318 -0.884929 -0.329318
vn -0.243224 -0.833759 0.495669
vn -0.677014 -0.107239 0.728115
vn -0.605516 -0.103803 0.789034
vn 0.773040 0.001384 -0.634356
vn 0.738283 -0.001175 -0.674490
vn 0.302257 -0.012565 -0.953144
vn 0.308085 -0.012624 -0.951275
vn -0.345160 0.938544 0.000000
vn 0.000000 0.938544 -0.345160
vn 0.642150 -0.123756 -0.756523
vn 0.577350 0.577351 -0.577350
vn -0.524110 0.535550 0.662190
vn 0.000000 -1.000000 0.000000
vn -0.351097 0.861489 0.366835
vn -0.362013 0.190989 0.912398
vn -0.342464 0.351244 0.871405
vn 0.933954 0.045549 -0.354478
vn 0.884926 0.329322 -0.329322
vn 0.329322 0.884926 -0.329322
vn -0.660755 -0.657160 0.362689
vn 0.318522 -0.474439 -0.820641
vn 0.315152 -0.656867 -0.684985
vn -0.818878 -0.460022 0.343247
vn -0.327824 -0.105440 0.938837
vn 0.000000 -0.938545 -0.345156
vn -0.345156 -0.938545 0.000000
vn 0.000000 1.000000 0.000000
vn -0.000000 -0.011327 -0.999936
vn -0.000000 -0.011327 -0.999936
vn -0.343424 0.645782 0.681928
vn 0.671526 0.671526 -0.313220
vn -0.000000 -0.694080 -0.719898
vn -0.719688 -0.694297 -0.000052
vn -0.000000 -0.486597 -0.873627
vn -0.873264 -0.487247 0.000100
vn -0.000000 0.930764 0.365620
vn 0.998692 0.050788 0.005884
vn 0.938544 0.345160 -0.000000
vn 0.345160 0.938544 0.000000
vn -0.000000 0.131934 0.991259
vn 0.000000 0.321746 0.946826
vn -0.915917 -0.101131 0.388419
vn -0.933330 -0.098078 0.345363
vn -0.000000 -0.074713 0.997205
vn -0.329318 -0.884929 -0.329318
vn -0.000000 0.717991 0.696053
vn 0.707107 0.707107 -0.000000
vn -0.315152 -0.656867 -0.684985
vn -0.684841 -0.656998 -0.315192
vn -0.318522 -0.474439 -0.820641
vn -0.820458 -0.474831 -0.318408
vn -0.302257 -0.012565 -0.953144
vn -0.308084 -0.012624 -0.951275
vn 0.924843 -0.139081 -0.354009
vn 0.362013 0.190989 0.912398
vn 0.327824 -0.105440 0.938837
vn 0.733726 -0.179005 0.655441
vn 0.698640 0.189117 0.690026
vn 0.351097 0.861489 0.366835
vn 0.839561 0.358859 0.407871
vn 0.915769 0.104906 0.387765
vn 0.342464 0.351244 0.871405
vn -0.738283 -0.001175 -0.674490
vn -0.773039 0.001384 -0.634357
vn -0.589351 -0.552500 -0.589414
vn -0.627867 -0.460155 -0.627727
vn 0.592126 0.383742 0.708610
vn 0.343424 0.645782 0.681928
vn 0.655821 0.646765 0.389350
vn 0.524110 0.535550 0.662190
vn -0.998465 -0.055260 -0.003878
vn -0.998275 -0.050900 -0.029268
vn 0.992071 -0.125328 0.009404
vn 0.949721 -0.144851 0.277575
vn -0.967312 -0.017624 -0.252976
vn -0.951457 -0.011864 -0.307553
vn -0.695332 0.025275 -0.718244
vn 0.933330 -0.098078 0.345363
vn 0.915917 -0.101132 0.388418
vn 0.351686 -0.100334 0.930726
vn 0.286158 -0.100765 0.952869
vn -0.924843 -0.139081 -0.354009
vn -0.308619 -0.095092 -0.946421
vn 0.677014 -0.107239 0.728115
vn 0.605516 -0.103803 0.789034
vn -0.642150 -0.123756 -0.756524
vn 0.103860 -0.938111 0.330395
vn 0.103860 -0.938111 0.330395
vn 0.103860 -0.938111 0.330395
vn 0.103860 -0.938111 0.330395
vn 0.034766 -0.995074 0.092838
vn 0.034766 -0.995074 0.092838
vn 0.034766 -0.995074 0.092838
vn 0.034766 -0.995074 0.092838
vn 0.208749 -0.907121 0.365451
vn 0.208749 -0.907121 0.365451
vn 0.208749 -0.907121 0.365451
vn 0.208749 -0.907121 0.365451
vn -0.168241 -0.982849 0.075521
vn -0.168241 -0.982849 0.075521
vn -0.168241 -0.982849 0.075521
vn -0.168241 -0.982849 0.075521
vn -0.134105 -0.986807 0.090706
vn -0.134105 -0.986807 0.090706
vn -0.134105 -0.986807 0.090706
vn -0.134105 -0.986807 0.090706
vn 0.139440 -0.919513 0.367494
vn 0.139440 -0.919513 0.367494
vn 0.139440 -0.919513 0.367494
vn 0.139440 -0.919513 0.367494
vn 0.232659 -0.892330 0.386803
vn 0.232659 -0.892330 0.386803
vn 0.232659 -0.892330 0.386803
vn 0.232659 -0.892330 0.386803
vn 0.134106 -0.986807 0.090709
vn 0.134106 -0.986807 0.090709
vn 0.134106 -0.986807 0.090709
vn 0.134106 -0.986807 0.090709
vn 0.168241 -0.982849 0.075524
vn 0.168241 -0.982849 0.075524
vn 0.168241 -0.982849 0.075524
vn 0.168241 -0.982849 0.075524
vn -0.049709 -0.957258 -0.284932
vn -0.049709 -0.957258 -0.284932
vn -0.049709 -0.957258 -0.284932
vn -0.049709 -0.957258 -0.284932
vn -0.034770 -0.995074 0.092837
vn -0.034770 -0.995074 0.092837
vn -0.034770 -0.995074 0.092837
vn -0.034770 -0.995074 0.092837
vn -0.139445 -0.919513 0.367493
vn -0.139445 -0.919513 0.367493
vn -0.139445 -0.919513 0.367493
vn -0.139445 -0.919513 0.367493
vn 0.049707 -0.957258 -0.284933
vn 0.049707 -0.957258 -0.284933
vn 0.049707 -0.957258 -0.284933
vn 0.049707 -0.957258 -0.284933
vn -0.103861 -0.938112 0.330393
vn -0.103861 -0.938112 0.330393
vn -0.103861 -0.938112 0.330393
vn -0.103861 -0.938112 0.330393
vn -0.208750 -0.907122 0.365449
vn -0.208750 -0.907122 0.365449
vn -0.208750 -0.907122 0.365449
vn -0.208750 -0.907122 0.365449
vn -0.232658 -0.892330 0.386804
vn -0.232658 -0.892330 0.386804
vn -0.232658 -0.892330 0.386804
vn -0.232658 -0.892330 0.386804
s 1
g pCube3
usemtl initialShadingGroup
f 3/148/1 1/149/2 2/150/3 110/151/4
f 2/1/3 4/2/5 5/3/6 110/4/4
s 2
f 8/157/7 6/152/8 115/156/9 116/161/10
s 1
f 1/149/2 3/148/1 6/152/11 23/153/12
f 9/5/13 5/3/6 4/2/5 22/6/14
s 3
f 11/166/15 12/167/16 10/168/17 20/169/18
f 10/16/17 12/17/16 13/18/19 21/19/20
f 11/166/15 14/172/21 15/174/22 109/170/23
f 16/24/24 17/22/25 13/18/19 108/20/26
f 15/174/22 18/179/27 19/184/28 7/180/29
f 14/172/21 11/166/15 20/169/18 34/173/30
f 21/19/20 13/18/19 17/22/25 33/23/31
f 24/27/32 17/22/25 16/24/24 26/29/33
f 15/174/22 14/172/21 25/178/34 18/179/27
s 1
f 2/69/3 1/70/2 27/71/35 4/72/5
s 2
f 117/9/36 9/5/37 29/11/38 118/12/39
s 1
f 30/10/40 29/11/41 9/5/13 22/6/14
f 6/152/11 8/157/42 31/158/43 23/153/12
s 3
f 28/30/44 32/31/45 26/29/33 16/24/24
f 35/93/46 20/94/18 10/95/17 21/96/20
s 1
f 36/73/47 22/74/14 4/72/5 27/71/35
f 1/149/2 23/153/12 37/159/48 27/160/35
s 3
f 26/29/33 32/31/45 48/34/49 43/33/50
f 17/22/25 24/27/32 38/28/51 33/23/31
f 39/177/52 25/178/34 14/172/21 34/173/30
f 18/179/27 25/178/34 40/182/53 42/183/54
f 41/32/55 24/27/32 26/29/33 43/33/50
s 1
f 45/13/56 44/14/57 29/11/41 30/10/40
f 46/162/58 31/158/43 8/157/42 47/163/59
f 30/75/40 22/74/14 36/73/47 57/76/60
f 37/159/48 23/153/12 31/158/43 58/164/61
s 2
f 47/163/62 8/157/7 116/161/10 119/165/63
f 120/186/64 44/187/65 59/188/66 121/189/67
s 3
f 21/96/20 33/99/31 49/100/68 35/93/46
f 50/97/69 34/98/30 20/94/18 35/93/46
f 19/184/28 18/179/27 42/183/54 54/185/70
f 25/178/34 39/177/52 51/181/71 40/182/53
f 52/201/72 38/202/51 24/203/32 41/204/55
s 1
f 53/77/73 36/73/47 27/71/35 37/78/48
s 3
f 49/100/68 33/99/31 38/104/51 65/105/74
f 41/204/55 43/208/50 55/209/75 66/207/76
f 56/35/77 42/36/54 40/37/53 67/38/78
f 39/101/52 34/98/30 50/97/69 68/102/79
s 1
f 58/82/61 31/90/43 46/91/58 62/86/80
f 59/188/81 44/187/57 45/190/56 63/191/82
f 46/54/58 47/55/59 60/56/83 62/57/80
f 45/80/56 30/75/40 57/76/60 63/81/82
s 3
f 61/212/84 55/209/75 43/208/50 48/213/49
s 1
f 57/76/60 36/73/47 53/77/73 69/79/85
f 53/77/73 37/78/48 58/82/61 70/83/86
s 3
f 35/93/46 49/100/68 64/103/87 50/97/69
s 2
f 121/189/67 59/188/66 71/192/88 122/193/89
s 3
f 65/205/74 38/202/51 52/201/72 75/206/90
f 51/107/71 39/101/52 68/102/79 76/108/91
f 52/201/72 41/204/55 66/207/76 75/206/90
f 67/38/78 40/37/53 51/41/71 76/42/91
s 2
f 44/14/65 120/15/64 118/12/39 29/11/38
s 1
f 63/81/82 57/76/60 69/79/85 79/85/92
f 70/83/86 58/82/61 62/86/80 78/87/93
f 71/192/94 59/188/81 63/191/82 79/194/92
f 62/57/80 60/56/83 72/60/95 78/61/93
s 3
f 64/103/87 49/100/68 65/105/74 81/109/96
f 73/43/97 56/35/77 67/38/78 83/44/98
f 68/102/79 50/97/69 64/103/87 82/106/99
f 66/207/76 55/209/75 74/214/100 84/210/101
s 2
f 47/55/62 119/58/63 123/59/102 60/56/103
s 3
f 77/217/104 74/214/100 55/209/75 61/212/84
s 1
f 80/84/105 69/79/85 53/77/73 70/83/86
s 3
f 81/109/96 65/105/74 75/112/90 91/113/106
f 76/108/91 68/102/79 82/106/99 92/111/107
f 83/44/98 67/38/78 76/42/91 92/46/107
f 75/206/90 66/207/76 84/210/101 91/211/106
s 1
f 85/88/108 79/85/92 69/79/85 80/84/105
f 70/83/86 78/87/93 86/89/109 80/84/105
f 71/192/94 79/194/92 85/197/108 88/195/110
f 86/63/109 78/61/93 72/60/95 90/64/111
s 2
f 88/195/112 124/196/113 122/193/89 71/192/88
s 3
f 56/35/77 89/39/114 54/40/70 42/36/54
f 93/218/115 87/221/116 98/226/117 101/222/118
f 64/103/87 81/109/96 94/110/119 82/106/99
f 96/47/120 95/48/121 73/43/97 83/44/98
f 74/214/100 93/218/115 97/216/122 84/210/101
s 2
f 99/198/123 125/199/124 124/196/113 88/195/112
s 1
f 100/200/125 99/198/126 88/195/110 85/197/108
f 90/64/111 99/66/126 100/67/125 86/63/109
f 100/92/125 85/88/108 80/84/105 86/89/109
s 3
f 102/51/127 101/52/118 95/48/121 96/47/120
f 93/218/115 101/222/118 102/220/127 97/216/122
f 81/109/96 91/113/106 103/114/128 94/110/119
f 103/215/128 91/211/106 84/210/101 97/216/122
f 104/115/129 92/111/107 82/106/99 94/110/119
f 83/44/98 92/46/107 104/50/129 96/47/120
f 94/223/119 103/215/128 105/219/130 104/224/129
f 105/219/130 103/215/128 97/216/122 102/220/127
f 105/219/130 102/220/127 96/225/120 104/224/129
s 2
f 60/56/103 123/59/102 126/62/131 72/60/132
s 3
f 73/43/97 106/45/133 89/39/114 56/35/77
f 106/45/133 73/43/97 95/48/121 107/49/134
f 74/214/100 77/217/104 87/221/116 93/218/115
s 2
f 127/65/135 90/64/136 72/60/132 126/62/131
s 3
f 107/49/134 95/48/121 101/52/118 98/53/117
s 2
f 125/68/124 99/66/123 90/64/136 127/65/135
s 3
f 108/20/26 13/18/19 12/17/16 111/21/137
f 12/167/16 11/166/15 109/170/23 111/171/137
s 2
f 5/3/138 9/5/37 117/9/36 128/7/139
f 115/156/9 6/152/8 3/148/140 129/154/141
s 3
f 28/30/44 16/24/24 108/20/26 112/25/142
f 113/176/143 109/170/23 15/174/22 7/180/29
s 2
f 129/154/141 3/148/140 110/151/144 130/155/145
s 3
f 112/25/142 108/20/26 111/21/137 114/26/146
s 2
f 128/7/139 130/8/145 110/4/144 5/3/138
s 3
f 114/175/146 111/171/137 109/170/23 113/176/143
s off
f 7/116/147 19/117/148 116/118/149 115/119/150
f 32/138/151 28/134/152 117/135/153 118/139/154
f 19/117/155 54/120/156 119/121/157 116/118/158
f 61/146/159 48/142/160 120/143/161 121/147/162
f 77/144/163 61/146/164 121/147/165 122/145/166
f 48/142/167 32/138/168 118/139/169 120/143/170
f 54/120/171 89/124/172 123/125/173 119/121/174
f 87/140/175 77/144/176 122/145/177 124/141/178
f 98/136/179 87/140/180 124/141/181 125/137/182
f 89/124/183 106/128/184 126/129/185 123/125/186
f 106/128/187 107/132/188 127/133/189 126/129/190
f 107/132/191 98/136/192 125/137/193 127/133/194
f 28/134/195 112/130/196 128/131/197 117/135/198
f 113/122/199 7/116/200 115/119/201 129/123/202
f 114/126/203 113/122/204 129/123/205 130/127/206
f 112/130/207 114/126/208 130/127/209 128/131/210
