# This file uses centimeters as units for non-parametric coordinates.

mtllib Ramp.mtl
g default
v -3.501191 2.648052 -1.276283
v -3.501191 2.648052 -0.425428
v -3.501191 3.498907 -0.425428
v -3.501191 3.498907 -1.276283
v -1.023330 0.095486 -0.425428
v 0.309178 0.095486 -0.425428
v 0.309178 0.095486 0.425428
v -1.023330 0.095486 0.425428
v -3.501191 3.498907 -2.127138
v -3.501191 4.349762 -1.276283
v -3.501191 4.349762 -2.127138
v 0.309178 0.095486 -1.276283
v 1.276283 0.095486 -1.276283
v 1.276283 0.095486 -0.425428
v -2.416505 0.095486 0.425428
v -1.023330 0.095486 1.276283
v -2.416505 0.095486 1.276283
v -3.501191 0.946341 0.425428
v -3.501191 0.946341 1.276283
v -3.501191 1.797196 1.276283
v -3.501191 1.797196 0.425428
v -3.501191 1.797196 -0.425428
v -3.501191 2.648052 0.425428
v -3.501191 0.095486 1.276283
v -3.501191 0.095486 2.127138
v -3.501191 0.946341 2.127138
v -2.416505 0.095486 2.127138
v 1.276283 0.095486 -2.127138
v 2.605607 0.095486 -2.127138
v 2.605607 0.095486 -1.276283
v 2.127138 0.290182 -2.127138
v 1.370494 0.540854 -2.127138
v -3.184604 4.349762 -2.127138
v -2.809536 3.485103 -2.127138
v 1.370494 0.540853 -0.354888
v -2.807925 3.485107 -0.354890
v 0.479500 0.808978 -2.127138
v 0.479500 0.808978 -0.354886
v -3.501191 4.349762 -0.425428
v -3.501191 3.498907 0.425428
v 2.605607 0.095486 -0.425428
v 1.276283 0.095486 0.425428
v 0.309178 0.095486 1.276283
v -1.023330 0.095486 2.127138
v -3.501191 1.797196 2.127138
v -2.416505 0.946341 2.127138
v -3.501191 2.648052 1.276283
v -2.212561 2.652226 -0.354891
v -2.214006 2.652227 -2.127138
v 2.127138 0.284568 -1.276283
v -3.190955 4.349762 -1.276283
v 0.479500 0.808978 2.127138
v -2.214006 2.652227 2.127138
v 2.127138 0.278566 -0.390158
v -3.197456 4.349762 -0.390159
v -0.875796 1.605971 2.127138
v -1.023330 0.946341 2.127138
v -3.501191 4.349762 0.425428
v -2.416505 1.797196 2.127138
v -3.501191 3.498907 1.276283
v 2.605607 0.095486 0.425428
v 0.309178 0.095486 2.127138
v 1.276283 0.095486 1.276283
v -3.501191 2.648052 2.127138
v 1.370494 0.540854 2.127138
v -2.809536 3.485103 2.127138
v -3.501191 4.349762 1.276283
v -3.501191 3.498907 2.127138
v 2.605607 0.095486 1.276283
v 1.276283 0.095486 2.127138
v 2.127138 0.283612 0.425428
v -3.191881 4.349762 0.425428
v -3.501191 4.349762 2.127138
v 2.605607 0.095486 2.127138
v 2.127138 0.294609 2.127138
v 2.127138 0.289302 1.276283
v -3.185457 4.349762 1.276283
v -3.180311 4.349762 2.127138
v -0.874869 1.605971 -0.354887
v -1.023330 0.946341 -2.127138
v -0.875796 1.605971 -2.127138
v -3.501191 0.095486 0.425428
v 0.309178 0.095486 -2.127138
v -3.501191 1.797196 -1.276283
v -3.501191 2.648052 -2.127138
v -2.416505 0.095486 -0.425428
v -1.023330 0.095486 -1.276283
v -3.501191 0.946341 -0.425428
v -2.416505 1.797196 -2.127138
v -3.501191 1.797196 -2.127138
v -3.501191 0.095486 -0.425428
v -1.023330 0.095486 -2.127138
v -3.501191 0.946341 -1.276283
v -2.416505 0.095486 -1.276283
v -3.501191 0.946341 -2.127138
v -3.501191 0.095486 -1.276283
v -2.416505 0.095486 -2.127138
v -2.416505 0.946341 -2.127138
v -3.501191 0.095486 -2.127138
v 1.370494 0.540854 1.328767
v 0.479500 0.808978 1.387170
v -0.873216 1.605971 1.394003
v -2.211486 2.652227 1.369417
v -2.809536 3.485104 1.329236
v 1.370494 0.540853 0.454657
v 0.479500 0.808978 0.486849
v -0.874869 1.605971 0.489412
v -2.212561 2.652226 0.475935
v -2.809536 3.485106 0.453895
v 1.370494 0.540853 -1.296027
v 0.479500 0.808978 -1.317907
v -0.875796 1.605971 -1.320113
v -2.214007 2.652227 -1.310907
v -2.809536 3.485105 -1.295833
v 2.073877 0.095486 2.127138
v 2.073877 0.095486 -2.127138
v 2.073877 0.095486 -1.276283
v 2.073877 0.095486 -0.425428
v 2.073877 0.095486 0.425428
v 2.073877 0.095486 1.276283
vt 0.175000 0.150000
vt 0.225000 0.150000
vt 0.225000 0.200000
vt 0.175000 0.200000
vt 0.475000 0.850000
vt 0.525000 0.850000
vt 0.525000 0.900000
vt 0.475000 0.900000
vt 0.125000 0.200000
vt 0.175000 0.250000
vt 0.125000 0.250000
vt 0.525000 0.800000
vt 0.575000 0.800000
vt 0.575000 0.850000
vt 0.425000 0.900000
vt 0.475000 0.950000
vt 0.425000 0.950000
vt 0.275000 0.050000
vt 0.325000 0.050000
vt 0.325000 0.100000
vt 0.275000 0.100000
vt 0.225000 0.100000
vt 0.275000 0.150000
vt 0.325000 0.000000
vt 0.375000 0.000000
vt 0.375000 0.050000
vt 0.375000 0.950000
vt 0.425000 1.000000
vt 0.375000 1.000000
vt 0.575000 0.750000
vt 0.625000 0.750000
vt 0.625000 0.800000
vt 0.625000 0.724339
vt 0.598422 0.720840
vt 0.375000 0.500000
vt 0.406923 0.500000
vt 0.410318 0.526374
vt 0.375000 0.550000
vt 0.482925 0.872187
vt 0.500000 0.875000
vt 0.247187 0.108300
vt 0.250000 0.125000
vt 0.431567 0.871969
vt 0.437500 0.875000
vt 0.225000 0.250000
vt 0.275000 0.200000
vt 0.625000 0.850000
vt 0.575000 0.900000
vt 0.525000 0.950000
vt 0.475000 1.000000
vt 0.375000 0.100000
vt 0.425000 0.000000
vt 0.425000 0.050000
vt 0.325000 0.150000
vt 0.250000 0.062500
vt 0.246969 0.059522
vt 0.502457 0.872118
vt 0.825000 0.000000
vt 0.875000 0.000000
vt 0.875000 0.025661
vt 0.825000 0.025331
vt 0.247144 0.127075
vt 0.375000 0.450000
vt 0.406610 0.450000
vt 0.431599 0.879245
vt 0.254300 0.058070
vt 0.772927 0.024979
vt 0.775000 0.000000
vt 0.375000 0.400000
vt 0.406268 0.397927
vt 0.467506 0.085376
vt 0.475000 0.050000
vt 0.529387 0.044466
vt 0.275000 0.250000
vt 0.425000 0.100000
vt 0.475000 0.000000
vt 0.325000 0.200000
vt 0.625000 0.900000
vt 0.525000 1.000000
vt 0.575000 0.950000
vt 0.375000 0.150000
vt 0.424403 0.152772
vt 0.482885 0.878939
vt 0.253939 0.108260
vt 0.325000 0.250000
vt 0.375000 0.200000
vt 0.625000 0.950000
vt 0.575000 1.000000
vt 0.502291 0.874942
vt 0.502392 0.873485
vt 0.502376 0.876283
vt 0.249942 0.126935
vt 0.251283 0.127020
vt 0.248485 0.127036
vt 0.375000 0.250000
vt 0.625000 1.000000
vt 0.725000 0.000000
vt 0.725000 0.025275
vt 0.375000 0.350000
vt 0.406556 0.350000
vt 0.625000 0.025921
vt 0.625000 0.000000
vt 0.675000 0.000000
vt 0.675000 0.025609
vt 0.406873 0.300000
vt 0.375000 0.300000
vt 0.407175 0.250000
vt 0.525000 0.000000
vt 0.502457 0.878968
vt 0.502457 0.877666
vt 0.252640 0.127075
vt 0.253942 0.127075
vt 0.575000 0.000000
vt 0.598422 0.029432
vt 0.375000 0.875000
vt 0.379593 0.879409
vt 0.250000 0.000000
vt 0.254409 0.006367
vt 0.410581 0.223626
vt 0.424251 0.597408
vt 0.529185 0.705756
vt 0.475000 0.700000
vt 0.467363 0.664862
vt 0.275000 0.000000
vt 0.375000 0.900000
vt 0.525000 0.750000
vt 0.175000 0.100000
vt 0.125000 0.150000
vt 0.425000 0.850000
vt 0.475000 0.800000
vt 0.225000 0.050000
vt 0.425000 0.650000
vt 0.246852 0.006463
vt 0.379688 0.871852
vt 0.125000 0.100000
vt 0.375000 0.600000
vt 0.375000 0.650000
vt 0.375000 0.850000
vt 0.225000 0.000000
vt 0.475000 0.750000
vt 0.175000 0.050000
vt 0.425000 0.800000
vt 0.125000 0.050000
vt 0.375000 0.800000
vt 0.175000 0.000000
vt 0.425000 0.750000
vt 0.425000 0.700000
vt 0.375000 0.700000
vt 0.375000 0.750000
vt 0.125000 0.000000
vt 0.488390 0.877672
vt 0.433358 0.877979
vt 0.378236 0.878107
vt 0.253107 0.004486
vt 0.252987 0.059422
vt 0.252673 0.113641
vt 0.494418 0.876285
vt 0.435499 0.876440
vt 0.376562 0.876500
vt 0.251500 0.002166
vt 0.251439 0.061017
vt 0.251284 0.119545
vt 0.490933 0.873506
vt 0.434276 0.873353
vt 0.248285 0.003520
vt 0.377553 0.873285
vt 0.248365 0.060894
vt 0.248507 0.116133
vt 0.605000 1.000000
vt 0.605000 0.000000
vt 0.605000 0.750000
vt 0.605000 0.800000
vt 0.605000 0.850000
vt 0.605000 0.900000
vt 0.605000 0.950000
vn -1.000000 0.000000 0.000000
vn -1.000000 0.000000 0.000000
vn -1.000000 0.000000 0.000000
vn -1.000000 0.000000 0.000000
vn 0.000000 -1.000000 0.000000
vn 0.000000 -1.000000 0.000000
vn 0.000000 -1.000000 0.000000
vn 0.000000 -1.000000 0.000000
vn -1.000000 0.000000 0.000000
vn -1.000000 0.000000 0.000000
vn -1.000000 0.000000 0.000000
vn 0.000000 -1.000000 0.000000
vn 0.000000 -1.000000 0.000000
vn 0.000000 -1.000000 0.000000
vn 0.000000 -1.000000 0.000000
vn 0.000000 -1.000000 0.000000
vn 0.000000 -1.000000 0.000000
vn -1.000000 0.000000 0.000000
vn -1.000000 0.000000 0.000000
vn -1.000000 0.000000 0.000000
vn -1.000000 0.000000 0.000000
vn -1.000000 0.000000 0.000000
vn -1.000000 0.000000 0.000000
vn -1.000000 0.000000 0.000000
vn -1.000000 0.000000 0.000000
vn -1.000000 0.000000 0.000000
vn 0.000000 -1.000000 0.000000
vn 0.000000 -1.000000 0.000000
vn 0.000000 -1.000000 0.000000
vn 0.000000 -1.000000 0.000000
vn 0.000000 -1.000000 0.000000
vn 0.000000 -1.000000 0.000000
vn 0.000000 0.000000 -1.000000
vn 0.000000 0.000000 -1.000000
vn 0.000000 0.000000 -1.000000
vn 0.000000 0.000000 -1.000000
vn 0.000000 0.000000 -1.000000
vn 0.000000 0.000000 -1.000000
vn 0.000000 0.000000 -1.000000
vn 0.000000 0.000000 -1.000000
vn 0.304686 0.952453 0.000081
vn 0.303281 0.952900 0.001440
vn 0.428543 0.903522 -0.000084
vn 0.429380 0.903124 -0.000083
vn 0.696929 0.717140 -0.000525
vn 0.866333 0.499466 0.001037
vn 0.865038 0.501707 -0.000085
vn 0.696085 0.717960 -0.000383
vn -1.000000 0.000000 0.000000
vn -1.000000 0.000000 0.000000
vn 0.000000 -1.000000 0.000000
vn 0.000000 -1.000000 0.000000
vn 0.000000 -1.000000 0.000000
vn 0.000000 -1.000000 0.000000
vn -1.000000 0.000000 0.000000
vn 0.000000 -0.000000 1.000000
vn 0.000000 -0.000000 1.000000
vn -0.000000 -0.000000 1.000000
vn -0.000000 -0.000000 1.000000
vn -1.000000 0.000000 0.000000
vn 0.321106 0.947038 0.003134
vn 0.324383 0.945926 0.000346
vn 0.367361 0.930073 0.003142
vn 0.372227 0.928137 0.003062
vn 0.372227 0.928137 0.003062
vn 0.367369 0.930070 0.003142
vn 0.914683 0.404161 0.002922
vn 0.913273 0.407348 0.000300
vn 0.000000 1.000000 -0.000000
vn 0.000000 1.000000 -0.000000
vn 0.000000 1.000000 0.000000
vn 0.000000 1.000000 0.000000
vn 0.426431 0.904520 0.000552
vn 0.428307 0.903633 0.000089
vn 0.564988 0.825099 0.000308
vn 0.565351 0.824849 0.001529
vn 0.696933 0.717137 0.000414
vn 0.698859 0.715258 0.001819
vn 0.362054 0.932157 0.000130
vn 0.362098 0.932140 0.000394
vn 0.000000 1.000000 0.000000
vn 0.000000 1.000000 0.000000
vn 0.000000 0.000000 1.000000
vn 0.000000 -0.000000 1.000000
vn -0.000000 0.000000 1.000000
vn -1.000000 0.000000 0.000000
vn -0.000000 0.000000 1.000000
vn -0.000000 0.000000 1.000000
vn -0.000000 -0.000000 1.000000
vn -1.000000 0.000000 0.000000
vn 0.000000 -1.000000 0.000000
vn 0.000000 -1.000000 0.000000
vn 0.000000 -1.000000 0.000000
vn -1.000000 0.000000 0.000000
vn 0.299777 0.954008 -0.001463
vn 0.300863 0.953666 -0.001438
vn 0.867859 0.496809 -0.001347
vn 0.869774 0.493450 -0.000751
vn -1.000000 0.000000 0.000000
vn -0.000000 0.000000 1.000000
vn -0.000000 0.000000 1.000000
vn -1.000000 0.000000 0.000000
vn 0.000000 -1.000000 0.000000
vn 0.000000 -1.000000 0.000000
vn 0.315664 0.948866 -0.003094
vn 0.312381 0.949952 -0.003057
vn 0.916927 0.399043 -0.003153
vn 0.918101 0.396336 -0.002865
vn -1.000000 0.000000 0.000000
vn 0.000000 -1.000000 0.000000
vn 0.366188 0.930536 -0.002966
vn 0.366195 0.930533 -0.002966
vn 0.000000 1.000000 0.000000
vn 0.000000 1.000000 0.000000
vn 0.379844 0.925046 -0.002885
vn 0.379844 0.925046 -0.002885
vn 0.375282 0.926906 -0.002995
vn 0.375289 0.926903 -0.002995
vn 0.000000 1.000000 0.000000
vn 0.000000 1.000000 0.000000
vn 0.000000 1.000000 0.000000
vn 0.000000 1.000000 0.000000
vn -0.000000 0.000000 1.000000
vn 0.000000 0.000000 1.000000
vn 0.000000 0.000000 1.000000
vn 0.000000 0.000000 1.000000
vn 0.000000 0.000000 1.000000
vn 0.000000 0.000000 1.000000
vn 0.000000 0.000000 1.000000
vn 0.000000 0.000000 1.000000
vn 0.000000 0.000000 1.000000
vn 0.000000 0.000000 1.000000
vn 0.564816 0.825217 -0.000278
vn 0.564753 0.825260 -0.000274
vn 0.000000 0.000000 -1.000000
vn -0.000000 0.000000 -1.000000
vn -0.000000 0.000000 -1.000000
vn -1.000000 0.000000 0.000000
vn 0.000000 -1.000000 0.000000
vn 0.000000 -1.000000 0.000000
vn -1.000000 0.000000 0.000000
vn -1.000000 0.000000 0.000000
vn 0.000000 -1.000000 0.000000
vn 0.000000 -1.000000 0.000000
vn -1.000000 0.000000 0.000000
vn -0.000000 0.000000 -1.000000
vn 0.000000 0.000000 -1.000000
vn -1.000000 0.000000 0.000000
vn 0.000000 0.000000 -1.000000
vn 0.000000 0.000000 -1.000000
vn 0.000000 -1.000000 0.000000
vn -1.000000 0.000000 0.000000
vn 0.000000 -1.000000 0.000000
vn -1.000000 0.000000 0.000000
vn 0.000000 -1.000000 0.000000
vn -0.000000 0.000000 -1.000000
vn -0.000000 0.000000 -1.000000
vn -1.000000 0.000000 0.000000
vn 0.000000 -1.000000 0.000000
vn -1.000000 0.000000 0.000000
vn 0.000000 -1.000000 0.000000
vn -0.000000 0.000000 -1.000000
vn 0.000000 0.000000 -1.000000
vn 0.000000 0.000000 -1.000000
vn 0.000000 -1.000000 0.000000
vn 0.000000 0.000000 -1.000000
vn -1.000000 0.000000 0.000000
vn 0.321553 0.946887 -0.003032
vn 0.303397 0.952863 -0.001388
vn 0.429567 0.903035 -0.000153
vn 0.564892 0.825165 -0.000369
vn 0.695883 0.718155 -0.000260
vn 0.865842 0.500316 -0.001290
vn 0.914553 0.404455 -0.002823
vn 0.317614 0.948215 0.003165
vn 0.301980 0.953313 0.001481
vn 0.427691 0.903925 0.000000
vn 0.564869 0.825181 0.000000
vn 0.697629 0.716459 -0.000000
vn 0.867963 0.496627 0.001686
vn 0.916184 0.400743 0.003459
vn 0.000000 0.000000 -1.000000
vn 0.000000 -1.000000 0.000000
vn 0.000000 -1.000000 0.000000
vn 0.000000 -1.000000 0.000000
vn 0.000000 -1.000000 0.000000
vn 0.000000 -1.000000 0.000000
vn 0.000000 -1.000000 0.000000
s 1
g pCube3
usemtl initialShadingGroup
f 1/1/1 2/2/2 3/3/3 4/4/4
s 2
f 5/5/5 6/6/6 7/7/7 8/8/8
s 1
f 9/9/9 4/4/4 10/10/10 11/11/11
s 2
f 12/12/12 13/13/13 14/14/14 6/6/6
f 15/15/15 8/8/8 16/16/16 17/17/17
s 1
f 18/18/18 19/19/19 20/20/20 21/21/21
f 22/22/22 21/21/21 23/23/23 2/2/2
f 24/24/24 25/25/25 26/26/26 19/19/19
s 2
f 24/27/27 17/17/17 27/28/28 25/29/29
f 28/30/30 116/171/31 117/172/32 13/13/13
s 6
f 31/33/33 116/171/34 28/30/35 32/34/36
f 11/35/37 33/36/38 34/37/39 9/38/40
s 8
f 35/40/41 110/163/42 111/164/43 38/44/44
f 113/167/45 114/168/46 36/42/47 48/55/48
s 1
f 4/4/4 3/3/3 39/45/49 10/10/10
f 2/2/2 23/23/23 40/46/50 3/3/3
s 2
f 13/13/13 117/172/32 118/173/51 14/14/14
f 6/6/6 14/14/14 42/48/52 7/7/7
f 8/8/8 7/7/7 43/49/53 16/16/16
f 17/17/17 16/16/16 44/50/54 27/28/28
s 1
f 19/19/19 26/26/26 45/51/55 20/20/20
s 10
f 25/25/56 27/52/57 46/53/58 26/26/59
s 1
f 21/21/21 20/20/20 47/54/60 23/23/23
s 8
f 50/90/61 110/163/42 35/40/41 54/89/62
s 11
f 30/58/63 29/59/64 31/60/65 50/61/66
s 8
f 36/42/47 114/168/46 51/94/67 55/92/68
s 12
f 10/63/69 51/64/70 33/36/71 11/35/72
s 8
f 52/65/73 101/152/74 102/153/75 56/116/76
f 102/154/75 103/155/77 53/66/78 56/118/76
s 11
f 54/67/79 41/68/80 30/58/63 50/61/66
s 12
f 51/64/70 10/63/69 39/69/81 55/70/82
s 10
f 56/71/83 57/72/84 52/73/85
s 1
f 3/3/3 40/46/50 58/74/86 39/45/49
s 10
f 26/26/59 46/53/58 59/75/87 45/51/88
f 27/52/57 44/76/89 57/72/84 46/53/58
s 1
f 23/23/23 47/54/60 60/77/90 40/46/50
s 2
f 14/14/14 118/173/51 119/174/91 42/48/52
f 16/16/16 43/49/53 62/79/92 44/50/54
f 7/7/7 42/48/52 63/80/93 43/49/53
s 1
f 20/20/20 45/51/55 64/81/94 47/54/60
s 8
f 65/83/95 100/151/96 101/152/74 52/65/73
f 103/155/77 104/156/97 66/84/98 53/66/78
s 1
f 40/46/50 60/77/90 67/85/99 58/74/86
s 10
f 45/51/88 59/75/87 53/82/100 64/81/101
s 1
f 47/54/60 64/81/94 68/86/102 60/77/90
s 2
f 42/48/52 119/174/91 120/175/103 63/80/93
f 43/49/53 63/80/93 70/88/104 62/79/92
s 8
f 76/110/105 100/151/96 65/83/95 75/109/106
f 104/156/97 77/111/107 78/112/108 66/84/98
s 10
f 53/82/100 59/75/87 56/71/83
s 1
f 60/77/90 68/86/102 73/95/109 67/85/99
s 2
f 63/80/93 120/175/103 115/169/110 70/88/104
s 11
f 61/97/111 41/68/80 54/67/79 71/98/112
s 12
f 58/99/113 72/100/114 55/70/82 39/69/81
s 11
f 75/101/115 74/102/116 69/103/117 76/104/118
s 12
f 77/105/119 67/106/120 73/95/121 78/107/122
s 10
f 52/73/85 57/72/84 44/76/89 62/108/123
s 11
f 69/103/117 61/97/111 71/98/112 76/104/118
s 12
f 67/106/120 77/105/119 72/100/114 58/99/113
s 10
f 46/53/58 57/72/84 56/71/83 59/75/87
f 62/108/123 70/113/124 65/114/125 52/73/85
f 75/101/126 115/170/127 74/102/128
f 68/86/129 66/119/130 78/107/131 73/95/132
f 64/81/101 53/82/100 66/119/130 68/86/129
s 8
f 112/165/133 113/167/45 48/55/48 79/117/134
f 38/44/44 111/164/43 112/166/133 79/115/134
s 6
f 37/121/135 80/122/136 81/123/137
s 1
f 82/124/138 24/24/24 19/19/19 18/18/18
s 2
f 82/125/139 15/15/15 17/17/17 24/27/27
f 83/126/140 28/30/30 13/13/13 12/12/12
s 1
f 84/127/141 22/22/22 2/2/2 1/1/1
f 85/128/142 1/1/1 4/4/4 9/9/9
s 2
f 86/129/143 5/5/5 8/8/8 15/15/15
f 87/130/144 12/12/12 6/6/6 5/5/5
s 1
f 88/131/145 18/18/18 21/21/21 22/22/22
s 6
f 81/123/137 89/132/146 49/120/147
s 1
f 90/135/148 84/127/141 1/1/1 85/128/142
s 6
f 85/136/149 49/120/147 89/132/146 90/137/150
s 2
f 91/138/151 86/129/143 15/15/15 82/125/139
s 1
f 91/139/152 82/124/138 18/18/18 88/131/145
s 2
f 92/140/153 83/126/140 12/12/12 87/130/144
s 1
f 93/141/154 88/131/145 22/22/22 84/127/141
s 2
f 94/142/155 87/130/144 5/5/5 86/129/143
s 6
f 32/34/36 28/30/35 83/126/156 37/121/135
f 37/121/135 83/126/156 92/140/157 80/122/136
f 9/38/40 34/37/39 49/120/147 85/136/149
s 1
f 95/143/158 93/141/154 84/127/141 90/135/148
s 2
f 96/144/159 94/142/155 86/129/143 91/138/151
s 1
f 96/145/160 91/139/152 88/131/145 93/141/154
s 2
f 97/146/161 92/140/153 87/130/144 94/142/155
s 6
f 90/137/150 89/132/146 98/147/162 95/148/163
f 98/147/162 80/122/136 92/140/157 97/146/164
s 2
f 99/149/165 97/146/161 94/142/155 96/144/159
s 6
f 95/148/163 98/147/162 97/146/164 99/149/166
s 1
f 99/150/167 96/145/160 93/141/154 95/143/158
s 6
f 89/132/146 81/123/137 80/122/136 98/147/162
s 8
f 71/91/168 105/157/169 100/151/96 76/110/105
f 101/152/74 100/151/96 105/157/169 106/158/170
f 102/153/75 101/152/74 106/158/170 107/159/171
f 107/160/171 108/161/172 103/155/77 102/154/75
f 108/161/172 109/162/173 104/156/97 103/155/77
f 109/162/173 72/93/174 77/111/107 104/156/97
f 71/91/168 54/89/62 35/40/41 105/157/169
f 106/158/170 105/157/169 35/40/41 38/44/44
f 107/159/171 106/158/170 38/44/44 79/115/134
f 48/55/48 108/161/172 107/160/171 79/117/134
f 36/42/47 109/162/173 108/161/172 48/55/48
f 36/42/47 55/92/68 72/93/174 109/162/173
f 31/57/175 32/39/176 110/163/42 50/90/61
f 111/164/43 110/163/42 32/39/176 37/43/177
f 112/166/133 111/164/43 37/43/177 81/134/178
f 49/56/179 113/167/45 112/165/133 81/133/178
f 34/41/180 114/168/46 113/167/45 49/56/179
f 51/94/67 114/168/46 34/41/180 33/62/181
s 10
f 70/113/124 115/170/127 75/101/126 65/114/125
s 6
f 31/33/33 29/31/182 116/171/34
s 2
f 117/172/32 116/171/31 29/31/183 30/32/184
f 118/173/51 117/172/32 30/32/184 41/47/185
f 119/174/91 118/173/51 41/47/185 61/78/186
f 120/175/103 119/174/91 61/78/186 69/87/187
f 115/169/110 120/175/103 69/87/187 74/96/188
